# xmcd
#
# Track frame offsets:
#	150
#	18652
#	40357
#	60702
#	71437
#	82967
#	96732
#	126795
#	144120
#	156280
#	172909
#
# Disc length: 2588 seconds
#
# Revision: 1
# Processed by: cddbd v1.5.1PL2 Copyright (c) Steve Scherf et al.
# Submitted via: EasyCDDAExtractor 7.0.4.1
#
DISCID=910a1a0b
DTITLE=Little Freddie King - You Don't Know What I Know
DYEAR=2005
DGENRE=Blues
TTITLE0=Crack Head Joe
TTITLE1=Walking With Freddie
TTITLE2=Chicken Dance
TTITLE3=You Rascal You
TTITLE4=Looking For My Woman
TTITLE5=Hot Fingers
TTITLE6=Tough Frog To Swallow
TTITLE7=Fox Hunt
TTITLE8=Chicken Dance-Remix
TTITLE9=Cane Special
TTITLE10=Dig A Hole
EXTD=
EXTT0=
EXTT1=
EXTT2=
EXTT3=
EXTT4=
EXTT5=
EXTT6=
EXTT7=
EXTT8=
EXTT9=
EXTT10=
PLAYORDER=
